<svg xmlns="http://www.w3.org/2000/svg" xmlns:xlink="http://www.w3.org/1999/xlink" width="228.5" height="72" viewBox="0 0 228.5 72">
  <defs>
    <clipPath id="clip-前台APP下载页识别LOGO_浅色版型_">
      <rect width="228.5" height="72"/>
    </clipPath>
  </defs>
  <g id="前台APP下载页识别LOGO_浅色版型_" data-name="前台APP下载页识别LOGO (浅色版型)" clip-path="url(#clip-前台APP下载页识别LOGO_浅色版型_)">
    <g id="Group_92042" data-name="Group 92042" transform="translate(6331 -4318.719)">
      <g id="noun-casino-chips-4556467" transform="translate(-6331 4325)">
        <g id="Layer_2" data-name="Layer 2" transform="translate(0 0)">
          <path id="Path_104810" data-name="Path 104810" d="M12.7,13.792l3.155,3.17a22.116,22.116,0,0,1,13.2-5.476V4.03A29.556,29.556,0,0,0,10.59,11.679Z" transform="translate(-0.828 -4.03)" fill="#f5d423"/>
          <path id="Path_104811" data-name="Path 104811" d="M11.679,10.59A29.557,29.557,0,0,0,4.03,29.058h7.456a22.116,22.116,0,0,1,5.476-13.2L13.792,12.7Z" transform="translate(-4.03 -0.828)" fill="#f5d423"/>
          <path id="Path_104812" data-name="Path 104812" d="M25,11.486a22.116,22.116,0,0,1,13.2,5.476l3.155-3.17,2.113-2.113A29.556,29.556,0,0,0,25,4.03Z" transform="translate(6.207 -4.03)" fill="#f5d423"/>
          <path id="Path_104813" data-name="Path 104813" d="M40.563,10.59,38.45,12.7l-3.17,3.155a22.116,22.116,0,0,1,5.476,13.2h7.456A29.556,29.556,0,0,0,40.563,10.59Z" transform="translate(11.225 -0.828)" fill="#f5d423"/>
          <path id="Path_104814" data-name="Path 104814" d="M40.563,43.468A29.658,29.658,0,0,0,48.212,25H40.756A22.116,22.116,0,0,1,35.28,38.2l3.17,3.155Z" transform="translate(11.225 6.207)" fill="#f5d423"/>
          <path id="Path_104815" data-name="Path 104815" d="M11.679,43.468l2.113-2.113,3.17-3.155A22.116,22.116,0,0,1,11.486,25H4.03a29.556,29.556,0,0,0,7.649,18.468Z" transform="translate(-4.03 6.207)" fill="#f5d423"/>
          <path id="Path_104816" data-name="Path 104816" d="M35.531,31.914c.774-1.354.03-3.482-.729-5.03A33.448,33.448,0,0,0,26.929,16.66,33.564,33.564,0,0,0,19.057,26.9c-.759,1.533-1.5,3.661-.729,5.015.789,1.4,3.051,1.771,4.331,1.875a2.956,2.956,0,0,1,2.485,4.152l-.432.982h4.435l-.432-.982A2.956,2.956,0,0,1,31.2,33.789C32.48,33.685,34.742,33.313,35.531,31.914Z" transform="translate(2.79 2.136)" fill="#f5d423"/>
          <path id="Path_104817" data-name="Path 104817" d="M30.346,49.692c.506,0,1-.015,1.488-.06a19.325,19.325,0,0,0,11.1-4.6l2.1-2.1a19.325,19.325,0,0,0,4.6-11.1c.045-.491.06-.982.06-1.488s-.015-1-.06-1.488a19.325,19.325,0,0,0-4.6-11.1,23.267,23.267,0,0,0-2.1-2.1,19.211,19.211,0,0,0-11.1-4.584,14.919,14.919,0,0,0-2.976,0,19.211,19.211,0,0,0-11.1,4.584,23.269,23.269,0,0,0-2.1,2.1,19.211,19.211,0,0,0-4.584,11.1,14.919,14.919,0,0,0,0,2.976,19.211,19.211,0,0,0,4.584,11.1,23.267,23.267,0,0,0,2.1,2.1,19.325,19.325,0,0,0,11.1,4.6C29.349,49.678,29.84,49.692,30.346,49.692Zm-5.729-5.7a1.452,1.452,0,0,1-.119-1.414l1.339-3.066c-3.259-.253-5.581-1.414-6.682-3.363-1.131-1.994-.908-4.628.655-7.813a34.834,34.834,0,0,1,9.658-12.024,1.473,1.473,0,0,1,1.741-.015,34.729,34.729,0,0,1,9.673,12.039,11.53,11.53,0,0,1,1.369,4.985,5.622,5.622,0,0,1-.714,2.828c-1.1,1.95-3.423,3.11-6.682,3.363l1.339,3.066a1.452,1.452,0,0,1-.119,1.414,1.488,1.488,0,0,1-1.25.67H25.867A1.488,1.488,0,0,1,24.617,43.993Z" transform="translate(-0.627 -0.627)" fill="#f5d423"/>
          <path id="Path_104818" data-name="Path 104818" d="M41.355,38.45,38.2,35.28A22.116,22.116,0,0,1,25,40.756v7.456a29.556,29.556,0,0,0,18.468-7.649Z" transform="translate(6.207 11.225)" fill="#f5d423"/>
          <path id="Path_104819" data-name="Path 104819" d="M29.058,40.756a22.116,22.116,0,0,1-13.2-5.476L12.7,38.45,10.59,40.563a29.556,29.556,0,0,0,18.468,7.649Z" transform="translate(-0.828 11.225)" fill="#f5d423"/>
        </g>
      </g>
      <path id="Path_104821" data-name="Path 104821" d="M5.16,3.759H34.306V-5.985H16.284v-38.65H5.16Zm50.462.909c12.616,0,21.192-9.484,21.192-25.334,0-15.785-8.576-24.814-21.192-24.814S34.431-36.516,34.431-20.666,43.007,4.668,55.622,4.668Zm0-10c-6.09,0-9.819-5.976-9.819-15.33s3.729-14.876,9.819-14.876S65.5-30.02,65.5-20.666,61.713-5.336,55.622-5.336Zm47.479,10a22.32,22.32,0,0,0,15.412-5.911V-23.849H101.3v9.484h7.333v7.8a7.556,7.556,0,0,1-4.35,1.234c-8.638,0-12.74-5.586-12.74-15.2,0-9.419,4.91-15.005,11.746-15.005,3.853,0,6.277,1.624,8.576,3.768l5.842-7.405a20,20,0,0,0-14.791-6.3c-12.367,0-22.745,9.224-22.745,25.334C80.17-3.777,90.3,4.668,103.1,4.668Zm40.705,0C156.422,4.668,165-4.816,165-20.666c0-15.785-8.576-24.814-21.192-24.814s-21.192,8.964-21.192,24.814S131.191,4.668,143.807,4.668Zm0-10c-6.09,0-9.819-5.976-9.819-15.33s3.729-14.876,9.819-14.876,9.881,5.521,9.881,14.876S149.9-5.336,143.807-5.336Z" transform="translate(-6267.806 4375.125)" fill="#4d4d4d"/>
    </g>
  </g>
</svg>
